<mxfile host="app.diagrams.net" modified="2024-05-06T06:43:27.150Z" agent="Mozilla/5.0 (Windows NT 10.0; Win64; x64) AppleWebKit/537.36 (KHTML, like Gecko) Chrome/124.0.0.0 Safari/537.36" etag="PMlvwpOhMuCDj8w_hT0D" version="24.3.1" type="google">
  <diagram id="C5RBs43oDa-KdzZeNtuy" name="Page-1">
    <mxGraphModel grid="1" page="1" gridSize="10" guides="1" tooltips="1" connect="1" arrows="1" fold="1" pageScale="1" pageWidth="827" pageHeight="1169" math="0" shadow="0">
      <root>
        <mxCell id="WIyWlLk6GJQsqaUBKTNV-0" />
        <mxCell id="WIyWlLk6GJQsqaUBKTNV-1" parent="WIyWlLk6GJQsqaUBKTNV-0" />
        <mxCell id="Gu87LVZoG4sfxhz0N9g--15" value="" style="edgeStyle=orthogonalEdgeStyle;rounded=0;orthogonalLoop=1;jettySize=auto;html=1;" edge="1" parent="WIyWlLk6GJQsqaUBKTNV-1" source="Gu87LVZoG4sfxhz0N9g--1" target="Gu87LVZoG4sfxhz0N9g--2">
          <mxGeometry relative="1" as="geometry" />
        </mxCell>
        <mxCell id="Gu87LVZoG4sfxhz0N9g--41" value="" style="edgeStyle=orthogonalEdgeStyle;rounded=0;orthogonalLoop=1;jettySize=auto;html=1;" edge="1" parent="WIyWlLk6GJQsqaUBKTNV-1" source="Gu87LVZoG4sfxhz0N9g--1" target="Gu87LVZoG4sfxhz0N9g--2">
          <mxGeometry relative="1" as="geometry" />
        </mxCell>
        <mxCell id="Gu87LVZoG4sfxhz0N9g--1" value="Seaching Data" style="rounded=0;whiteSpace=wrap;html=1;fillColor=#d5e8d4;strokeColor=#82b366;" vertex="1" parent="WIyWlLk6GJQsqaUBKTNV-1">
          <mxGeometry x="90" y="50" width="120" height="60" as="geometry" />
        </mxCell>
        <mxCell id="Gu87LVZoG4sfxhz0N9g--16" value="" style="edgeStyle=orthogonalEdgeStyle;rounded=0;orthogonalLoop=1;jettySize=auto;html=1;" edge="1" parent="WIyWlLk6GJQsqaUBKTNV-1" source="Gu87LVZoG4sfxhz0N9g--2" target="Gu87LVZoG4sfxhz0N9g--3">
          <mxGeometry relative="1" as="geometry" />
        </mxCell>
        <mxCell id="Gu87LVZoG4sfxhz0N9g--2" value="Diabetes&amp;nbsp;&lt;div&gt;Dataset&lt;/div&gt;" style="shape=cylinder3;whiteSpace=wrap;html=1;boundedLbl=1;backgroundOutline=1;size=15;fillColor=#dae8fc;strokeColor=#6c8ebf;" vertex="1" parent="WIyWlLk6GJQsqaUBKTNV-1">
          <mxGeometry x="270" y="40" width="90" height="80" as="geometry" />
        </mxCell>
        <mxCell id="Gu87LVZoG4sfxhz0N9g--17" value="" style="edgeStyle=orthogonalEdgeStyle;rounded=0;orthogonalLoop=1;jettySize=auto;html=1;" edge="1" parent="WIyWlLk6GJQsqaUBKTNV-1" source="Gu87LVZoG4sfxhz0N9g--3" target="Gu87LVZoG4sfxhz0N9g--4">
          <mxGeometry relative="1" as="geometry" />
        </mxCell>
        <mxCell id="Gu87LVZoG4sfxhz0N9g--3" value="Data Processing" style="rounded=0;whiteSpace=wrap;html=1;fillColor=#f8cecc;strokeColor=#b85450;" vertex="1" parent="WIyWlLk6GJQsqaUBKTNV-1">
          <mxGeometry x="420" y="50" width="120" height="60" as="geometry" />
        </mxCell>
        <mxCell id="Gu87LVZoG4sfxhz0N9g--18" value="" style="edgeStyle=orthogonalEdgeStyle;rounded=0;orthogonalLoop=1;jettySize=auto;html=1;" edge="1" parent="WIyWlLk6GJQsqaUBKTNV-1" source="Gu87LVZoG4sfxhz0N9g--4" target="Gu87LVZoG4sfxhz0N9g--5">
          <mxGeometry relative="1" as="geometry" />
        </mxCell>
        <mxCell id="Gu87LVZoG4sfxhz0N9g--4" value="Feature Selection" style="rounded=0;whiteSpace=wrap;html=1;fillColor=#b0e3e6;strokeColor=#0e8088;" vertex="1" parent="WIyWlLk6GJQsqaUBKTNV-1">
          <mxGeometry x="580" y="50" width="120" height="60" as="geometry" />
        </mxCell>
        <mxCell id="Gu87LVZoG4sfxhz0N9g--20" style="edgeStyle=orthogonalEdgeStyle;rounded=0;orthogonalLoop=1;jettySize=auto;html=1;entryX=0.5;entryY=0;entryDx=0;entryDy=0;" edge="1" parent="WIyWlLk6GJQsqaUBKTNV-1" source="Gu87LVZoG4sfxhz0N9g--5" target="Gu87LVZoG4sfxhz0N9g--7">
          <mxGeometry relative="1" as="geometry" />
        </mxCell>
        <mxCell id="Gu87LVZoG4sfxhz0N9g--22" style="edgeStyle=orthogonalEdgeStyle;rounded=0;orthogonalLoop=1;jettySize=auto;html=1;entryX=0.5;entryY=0;entryDx=0;entryDy=0;" edge="1" parent="WIyWlLk6GJQsqaUBKTNV-1" source="Gu87LVZoG4sfxhz0N9g--5" target="Gu87LVZoG4sfxhz0N9g--6">
          <mxGeometry relative="1" as="geometry" />
        </mxCell>
        <mxCell id="Gu87LVZoG4sfxhz0N9g--5" value="Data Spliting" style="rounded=0;whiteSpace=wrap;html=1;fillColor=#e1d5e7;strokeColor=#9673a6;" vertex="1" parent="WIyWlLk6GJQsqaUBKTNV-1">
          <mxGeometry x="740" y="50" width="120" height="60" as="geometry" />
        </mxCell>
        <mxCell id="Gu87LVZoG4sfxhz0N9g--30" style="edgeStyle=orthogonalEdgeStyle;rounded=0;orthogonalLoop=1;jettySize=auto;html=1;entryX=0;entryY=0.5;entryDx=0;entryDy=0;exitX=0;exitY=0.5;exitDx=0;exitDy=0;" edge="1" parent="WIyWlLk6GJQsqaUBKTNV-1" source="Gu87LVZoG4sfxhz0N9g--6" target="Gu87LVZoG4sfxhz0N9g--10">
          <mxGeometry relative="1" as="geometry" />
        </mxCell>
        <mxCell id="Gu87LVZoG4sfxhz0N9g--6" value="Training" style="rounded=1;whiteSpace=wrap;html=1;fillColor=#d5e8d4;strokeColor=#82b366;" vertex="1" parent="WIyWlLk6GJQsqaUBKTNV-1">
          <mxGeometry x="700" y="160" width="90" height="30" as="geometry" />
        </mxCell>
        <mxCell id="Gu87LVZoG4sfxhz0N9g--31" style="edgeStyle=orthogonalEdgeStyle;rounded=0;orthogonalLoop=1;jettySize=auto;html=1;entryX=1;entryY=0.5;entryDx=0;entryDy=0;exitX=1;exitY=0.5;exitDx=0;exitDy=0;" edge="1" parent="WIyWlLk6GJQsqaUBKTNV-1" source="Gu87LVZoG4sfxhz0N9g--7" target="Gu87LVZoG4sfxhz0N9g--11">
          <mxGeometry relative="1" as="geometry" />
        </mxCell>
        <mxCell id="Gu87LVZoG4sfxhz0N9g--7" value="Testing" style="rounded=1;whiteSpace=wrap;html=1;fillColor=#fff2cc;strokeColor=#d6b656;" vertex="1" parent="WIyWlLk6GJQsqaUBKTNV-1">
          <mxGeometry x="810" y="160" width="90" height="30" as="geometry" />
        </mxCell>
        <mxCell id="Gu87LVZoG4sfxhz0N9g--42" style="edgeStyle=orthogonalEdgeStyle;rounded=0;orthogonalLoop=1;jettySize=auto;html=1;" edge="1" parent="WIyWlLk6GJQsqaUBKTNV-1" source="Gu87LVZoG4sfxhz0N9g--12">
          <mxGeometry relative="1" as="geometry">
            <mxPoint x="390" y="445" as="targetPoint" />
          </mxGeometry>
        </mxCell>
        <mxCell id="Gu87LVZoG4sfxhz0N9g--12" value="Selecting best Model" style="whiteSpace=wrap;html=1;aspect=fixed;fillColor=#bac8d3;strokeColor=#23445d;" vertex="1" parent="WIyWlLk6GJQsqaUBKTNV-1">
          <mxGeometry x="490" y="390" width="110" height="110" as="geometry" />
        </mxCell>
        <mxCell id="Gu87LVZoG4sfxhz0N9g--13" value="Gestational Diabetes Prediction" style="rounded=0;whiteSpace=wrap;html=1;fillColor=#f5f5f5;fontColor=#333333;strokeColor=#666666;" vertex="1" parent="WIyWlLk6GJQsqaUBKTNV-1">
          <mxGeometry x="240" y="385" width="150" height="120" as="geometry" />
        </mxCell>
        <mxCell id="Gu87LVZoG4sfxhz0N9g--10" value="Model Training(LSTM, Bi LSTM, Stack LSTM)" style="whiteSpace=wrap;html=1;aspect=fixed;fillColor=#d5e8d4;strokeColor=#82b366;" vertex="1" parent="WIyWlLk6GJQsqaUBKTNV-1">
          <mxGeometry x="690" y="290" width="90" height="90" as="geometry" />
        </mxCell>
        <mxCell id="Gu87LVZoG4sfxhz0N9g--11" value="Model Testing" style="whiteSpace=wrap;html=1;aspect=fixed;fillColor=#fff2cc;strokeColor=#d6b656;" vertex="1" parent="WIyWlLk6GJQsqaUBKTNV-1">
          <mxGeometry x="840" y="290" width="90" height="90" as="geometry" />
        </mxCell>
        <mxCell id="Gu87LVZoG4sfxhz0N9g--35" value="" style="endArrow=none;html=1;rounded=0;" edge="1" parent="WIyWlLk6GJQsqaUBKTNV-1">
          <mxGeometry width="50" height="50" relative="1" as="geometry">
            <mxPoint x="940" y="250" as="sourcePoint" />
            <mxPoint x="680" y="250" as="targetPoint" />
          </mxGeometry>
        </mxCell>
        <mxCell id="Gu87LVZoG4sfxhz0N9g--36" value="" style="endArrow=none;html=1;rounded=0;" edge="1" parent="WIyWlLk6GJQsqaUBKTNV-1">
          <mxGeometry width="50" height="50" relative="1" as="geometry">
            <mxPoint x="680" y="400" as="sourcePoint" />
            <mxPoint x="680" y="250" as="targetPoint" />
          </mxGeometry>
        </mxCell>
        <mxCell id="Gu87LVZoG4sfxhz0N9g--37" value="" style="endArrow=none;html=1;rounded=0;" edge="1" parent="WIyWlLk6GJQsqaUBKTNV-1">
          <mxGeometry width="50" height="50" relative="1" as="geometry">
            <mxPoint x="940.2" y="400" as="sourcePoint" />
            <mxPoint x="940.000048828125" y="250" as="targetPoint" />
          </mxGeometry>
        </mxCell>
        <mxCell id="Gu87LVZoG4sfxhz0N9g--38" value="" style="endArrow=none;html=1;rounded=0;flowAnimation=0;" edge="1" parent="WIyWlLk6GJQsqaUBKTNV-1">
          <mxGeometry width="50" height="50" relative="1" as="geometry">
            <mxPoint x="680" y="400" as="sourcePoint" />
            <mxPoint x="940" y="400" as="targetPoint" />
            <Array as="points">
              <mxPoint x="810" y="400" />
            </Array>
          </mxGeometry>
        </mxCell>
        <mxCell id="Gu87LVZoG4sfxhz0N9g--40" value="Process of Selecting Model" style="text;html=1;align=center;verticalAlign=middle;resizable=0;points=[];autosize=1;strokeColor=none;fillColor=none;" vertex="1" parent="WIyWlLk6GJQsqaUBKTNV-1">
          <mxGeometry x="715" y="260" width="170" height="30" as="geometry" />
        </mxCell>
        <mxCell id="Gu87LVZoG4sfxhz0N9g--44" value="" style="endArrow=classic;html=1;rounded=0;entryX=1;entryY=0.5;entryDx=0;entryDy=0;" edge="1" parent="WIyWlLk6GJQsqaUBKTNV-1" target="Gu87LVZoG4sfxhz0N9g--12">
          <mxGeometry width="50" height="50" relative="1" as="geometry">
            <mxPoint x="810" y="400" as="sourcePoint" />
            <mxPoint x="590" y="290" as="targetPoint" />
            <Array as="points">
              <mxPoint x="810" y="445" />
            </Array>
          </mxGeometry>
        </mxCell>
        <mxCell id="TjETEamFGdjYOJ6tFZpM-0" value="" style="ellipse;whiteSpace=wrap;html=1;" vertex="1" parent="WIyWlLk6GJQsqaUBKTNV-1">
          <mxGeometry x="530" y="270" width="80" height="80" as="geometry" />
        </mxCell>
      </root>
    </mxGraphModel>
  </diagram>
</mxfile>
